<svg xmlns="http://www.w3.org/2000/svg" xmlns:xlink="http://www.w3.org/1999/xlink" version="1.1" x="0px" y="0px" viewBox="0 0 100 125" style="enable-background:new 0 0 100 100;" xml:space="preserve"><style type="text/css">
	.st0{fill:none;stroke:#000000;stroke-width:2;stroke-linecap:round;stroke-linejoin:round;stroke-miterlimit:10;}
	.st1{stroke:#000000;stroke-width:2;stroke-linecap:round;stroke-linejoin:round;stroke-miterlimit:10;}
	.st2{fill:none;stroke:#000000;stroke-width:1.8;stroke-linecap:round;stroke-linejoin:round;stroke-miterlimit:10;}
</style><path d="M19.4,37.9v50.3c0,0.6,0.4,1,1,1h60.2c0.6,0,1-0.4,1-1V37.9c0-0.6-0.4-1-1-1H66.9v-6.6h5.5c0.6,0,1-0.4,1-1V14.8  c0-0.6-0.4-1-1-1H28.5c-0.6,0-1,0.4-1,1v14.5c0,0.6,0.4,1,1,1h5.5v6.6H20.4C19.8,36.9,19.4,37.4,19.4,37.9z M29.5,28.3V15.8h41.9  v12.5H29.5z M64.9,30.3v6.6h-29v-6.6H64.9z M21.4,38.9h58.2v48.3H21.4V38.9z"/><path d="M72.4,81.3H28.5c-0.6,0-1-0.4-1-1s0.4-1,1-1h42.9V56.8c0-0.6,0.4-1,1-1s1,0.4,1,1v23.5C73.4,80.8,73,81.3,72.4,81.3z"/>
</svg>